<svg xmlns="http://www.w3.org/2000/svg" viewBox="0 0 200 60" preserveAspectRatio="none"><polygon points="7.0,2.8 33.6,3.0 60.1,3.4 86.7,3.0 113.3,3.6 139.9,2.7 166.4,3.4 192.1,3.1 195.0,6.3 196.0,9.4 193.1,12.6 197.3,15.7 194.3,18.8 193.4,22.0 194.1,25.1 193.0,28.3 193.9,31.4 193.6,34.5 195.0,37.7 194.5,40.8 192.7,43.9 196.4,47.1 195.3,50.2 197.0,53.4 194.3,57.2 173.5,57.2 152.7,56.5 131.9,56.5 111.1,56.6 90.2,56.4 69.4,56.1 48.6,56.1 27.8,56.5 9.5,56.6 8.3,53.4 4.2,50.3 7.5,47.1 5.8,43.9 6.3,40.8 8.1,37.6 7.7,34.5 7.3,31.3 7.6,28.1 3.8,25.0 4.5,21.8 3.2,18.6 7.6,15.5 7.1,12.3 9.0,9.2 8.1,6.0" fill="#000"/></svg>
